<svg width="1000" height="1000" viewBox="0 0 1000 1000" fill="none" xmlns="http://www.w3.org/2000/svg">
<g clip-path="url(#clip0_2_2)">
<path d="M840.362 1000H159.638C71.3275 1000 0 928.673 0 840.362V159.638C0 71.3275 71.3275 0 159.638 0H840.645C928.673 0 1000.28 71.3275 1000.28 159.638V840.645C1000 928.673 928.673 1000 840.362 1000Z" fill="#FB923C"/>
<path d="M67.6479 464.761V170.393C67.6479 113.501 113.784 67.3649 170.677 67.3649H829.89C886.782 67.3649 932.918 113.501 932.918 170.393V464.761C932.918 521.653 886.782 567.789 829.89 567.789H170.394C113.784 567.789 67.6479 521.653 67.6479 464.761Z" fill="#FDBA74"/>
<path d="M516.558 388.055V564.393C476.083 564.393 455.986 579.677 455.986 610.812C455.986 639.117 471.554 653.269 502.123 653.269C533.258 653.269 548.825 634.022 548.825 595.245V155.675H748.656V574.016C748.656 617.322 744.41 652.986 735.635 680.725C726.861 708.463 712.143 734.22 691.197 758.279C667.704 784.885 637.985 805.831 602.604 821.398C567.223 836.683 530.427 844.608 492.782 844.608C424.568 844.608 367.11 821.681 320.691 775.545C274.271 729.691 251.061 672.516 251.061 604.585C251.061 538.636 272.007 485.14 313.614 444.098C351.826 406.453 409.001 387.489 485.989 387.489L516.558 388.055Z" fill="#F2F2F2"/>
</g>
<defs>
<clipPath id="clip0_2_2">
<rect width="1000" height="1000" fill="white"/>
</clipPath>
</defs>
</svg>
